<?xml version="1.0" encoding="UTF-8" standalone="no"?>
<!DOCTYPE svg PUBLIC "-//W3C//DTD SVG 1.1//EN"
 "http://www.w3.org/Graphics/SVG/1.1/DTD/svg11.dtd">
<!-- Generated by graphviz version 13.1.0 (20250701.0955)
 -->
<!-- Pages: 1 -->
<svg width="212pt" height="604pt"
 viewBox="0.00 0.00 212.00 604.00" xmlns="http://www.w3.org/2000/svg" xmlns:xlink="http://www.w3.org/1999/xlink">
<g id="graph0" class="graph" transform="scale(1 1) rotate(0) translate(4 600.08)">
<polygon fill="white" stroke="none" points="-4,4 -4,-600.08 207.97,-600.08 207.97,4 -4,4"/>
<!-- start -->
<g id="node1" class="node">
<title>start</title>
</g>
<!-- A -->
<g id="node5" class="node">
<title>A</title>
<ellipse fill="none" stroke="black" cx="74.9" cy="-478.39" rx="44.7" ry="44.7"/>
<text xml:space="preserve" text-anchor="middle" x="74.9" y="-473.34" font-family="Times,serif" font-size="14.00">A/ Alpha</text>
</g>
<!-- start&#45;&gt;A -->
<g id="edge1" class="edge">
<title>start&#45;&gt;A</title>
<path fill="none" stroke="black" d="M74.9,-560.51C74.9,-553.23 74.9,-544.23 74.9,-534.89"/>
<polygon fill="black" stroke="black" points="78.4,-534.95 74.9,-524.95 71.4,-534.95 78.4,-534.95"/>
</g>
<!-- B -->
<g id="node2" class="node">
<title>B</title>
<ellipse fill="none" stroke="black" cx="164.9" cy="-342.12" rx="39.07" ry="39.07"/>
<text xml:space="preserve" text-anchor="middle" x="164.9" y="-337.07" font-family="Times,serif" font-size="14.00">B/ Beta</text>
</g>
<!-- D -->
<g id="node3" class="node">
<title>D</title>
<ellipse fill="none" stroke="black" cx="146.9" cy="-46.65" rx="42.65" ry="42.65"/>
<ellipse fill="none" stroke="black" cx="146.9" cy="-46.65" rx="46.65" ry="46.65"/>
<text xml:space="preserve" text-anchor="middle" x="146.9" y="-41.6" font-family="Times,serif" font-size="14.00">D/ Delta</text>
</g>
<!-- B&#45;&gt;D -->
<g id="edge5" class="edge">
<title>B&#45;&gt;D</title>
<path fill="none" stroke="black" d="M162.54,-302.75C159.44,-252.21 153.97,-162.91 150.38,-104.51"/>
<polygon fill="black" stroke="black" points="153.89,-104.54 149.79,-94.77 146.91,-104.96 153.89,-104.54"/>
<text xml:space="preserve" text-anchor="middle" x="162.51" y="-193.13" font-family="Times,serif" font-size="14.00">1</text>
</g>
<!-- C -->
<g id="node4" class="node">
<title>C</title>
<ellipse fill="none" stroke="black" cx="80.9" cy="-198.18" rx="52.38" ry="52.38"/>
<text xml:space="preserve" text-anchor="middle" x="80.9" y="-193.13" font-family="Times,serif" font-size="14.00">C/ Gamma</text>
</g>
<!-- B&#45;&gt;C -->
<g id="edge4" class="edge">
<title>B&#45;&gt;C</title>
<path fill="none" stroke="black" d="M145.2,-307.84C135.63,-291.66 123.87,-271.79 113.04,-253.49"/>
<polygon fill="black" stroke="black" points="116.18,-251.93 108.08,-245.11 110.16,-255.49 116.18,-251.93"/>
<text xml:space="preserve" text-anchor="middle" x="133.8" y="-271.75" font-family="Times,serif" font-size="14.00">0</text>
</g>
<!-- D&#45;&gt;B -->
<g id="edge9" class="edge">
<title>D&#45;&gt;B</title>
<path fill="none" stroke="black" d="M160.15,-91.63C161.89,-98.19 163.53,-104.9 164.9,-111.3 181,-186.96 181.71,-208 174.9,-285.05 174.69,-287.4 174.43,-289.79 174.14,-292.21"/>
<polygon fill="black" stroke="black" points="170.69,-291.65 172.75,-302.04 177.62,-292.63 170.69,-291.65"/>
<text xml:space="preserve" text-anchor="middle" x="182.35" y="-193.13" font-family="Times,serif" font-size="14.00">1</text>
</g>
<!-- D&#45;&gt;A -->
<g id="edge8" class="edge">
<title>D&#45;&gt;A</title>
<path fill="none" stroke="black" d="M104.77,-67.23C75.03,-83.6 37.46,-110.03 19.9,-145.8 -25.51,-238.28 17.88,-360.91 49.18,-428.12"/>
<polygon fill="black" stroke="black" points="45.97,-429.53 53.43,-437.05 52.29,-426.52 45.97,-429.53"/>
<text xml:space="preserve" text-anchor="middle" x="7.04" y="-271.75" font-family="Times,serif" font-size="14.00">0</text>
</g>
<!-- C&#45;&gt;D -->
<g id="edge6" class="edge">
<title>C&#45;&gt;D</title>
<path fill="none" stroke="black" d="M101.78,-149.87C108.78,-134 116.63,-116.23 123.79,-100"/>
<polygon fill="black" stroke="black" points="126.93,-101.55 127.77,-90.98 120.53,-98.72 126.93,-101.55"/>
<text xml:space="preserve" text-anchor="middle" x="121.22" y="-114.5" font-family="Times,serif" font-size="14.00">0</text>
</g>
<!-- C&#45;&gt;A -->
<g id="edge7" class="edge">
<title>C&#45;&gt;A</title>
<path fill="none" stroke="black" d="M83.51,-250.86C85.22,-294.76 86.53,-359.42 82.9,-415.69 82.75,-418 82.57,-420.36 82.36,-422.75"/>
<polygon fill="black" stroke="black" points="78.9,-422.17 81.39,-432.47 85.87,-422.86 78.9,-422.17"/>
<text xml:space="preserve" text-anchor="middle" x="88.59" y="-337.07" font-family="Times,serif" font-size="14.00">1</text>
</g>
<!-- A&#45;&gt;B -->
<g id="edge2" class="edge">
<title>A&#45;&gt;B</title>
<path fill="none" stroke="black" d="M99.49,-440.7C111.19,-423.24 125.23,-402.3 137.29,-384.3"/>
<polygon fill="black" stroke="black" points="139.89,-386.71 142.55,-376.45 134.08,-382.81 139.89,-386.71"/>
<text xml:space="preserve" text-anchor="middle" x="128.66" y="-402.39" font-family="Times,serif" font-size="14.00">0</text>
</g>
<!-- A&#45;&gt;C -->
<g id="edge3" class="edge">
<title>A&#45;&gt;C</title>
<path fill="none" stroke="black" d="M71.16,-433.36C69.94,-416.99 68.75,-398.25 68.15,-381.19 66.93,-346.48 66.03,-337.71 68.15,-303.05 68.97,-289.59 70.39,-275.21 71.99,-261.56"/>
<polygon fill="black" stroke="black" points="75.44,-262.16 73.18,-251.81 68.49,-261.31 75.44,-262.16"/>
<text xml:space="preserve" text-anchor="middle" x="71.52" y="-337.07" font-family="Times,serif" font-size="14.00">1</text>
</g>
</g>
</svg>
